<svg id="Group_243" data-name="Group 243" xmlns="http://www.w3.org/2000/svg" width="275.169" height="275.169" viewBox="0 0 275.169 275.169">
  <path id="Path_48" data-name="Path 48" d="M291.374,276.749A5.374,5.374,0,1,0,286,271.374,5.377,5.377,0,0,0,291.374,276.749Zm0,0" transform="translate(-132.292 -123.041)" fill="#fff"/>
  <path id="Path_49" data-name="Path 49" d="M71.374,276.749A5.374,5.374,0,1,0,66,271.374,5.377,5.377,0,0,0,71.374,276.749Zm0,0" transform="translate(-30.529 -123.041)" fill="#fff"/>
  <path id="Path_50" data-name="Path 50" d="M5.374,67.718a5.374,5.374,0,0,0,5.374-5.374V10.749H62.343A5.374,5.374,0,1,0,62.343,0H5.374A5.374,5.374,0,0,0,0,5.374V62.343A5.374,5.374,0,0,0,5.374,67.718Zm0,0" fill="#fff"/>
  <path id="Path_51" data-name="Path 51" d="M67.718,448.343a5.374,5.374,0,0,0-5.374-5.374H10.749V391.374a5.374,5.374,0,1,0-10.749,0v56.969a5.374,5.374,0,0,0,5.374,5.374H62.343A5.374,5.374,0,0,0,67.718,448.343Zm0,0" transform="translate(0 -178.548)" fill="#fff"/>
  <path id="Path_52" data-name="Path 52" d="M448.343,386a5.374,5.374,0,0,0-5.374,5.374v51.594H391.374a5.374,5.374,0,1,0,0,10.749h56.969a5.374,5.374,0,0,0,5.374-5.374V391.374A5.374,5.374,0,0,0,448.343,386Zm0,0" transform="translate(-178.548 -178.548)" fill="#fff"/>
  <path id="Path_53" data-name="Path 53" d="M448.343,0H391.374a5.374,5.374,0,1,0,0,10.749h51.594V62.343a5.374,5.374,0,1,0,10.749,0V5.374A5.374,5.374,0,0,0,448.343,0Zm0,0" transform="translate(-178.548)" fill="#fff"/>
  <path id="Path_54" data-name="Path 54" d="M66,385.118a5.374,5.374,0,0,0,5.374,5.374h53.744a5.374,5.374,0,0,0,5.374-5.374V331.374A5.374,5.374,0,0,0,125.118,326H71.374A5.374,5.374,0,0,0,66,331.374Zm10.749-48.37h43v43h-43Zm0,0" transform="translate(-30.529 -150.794)" fill="#fff"/>
  <path id="Path_55" data-name="Path 55" d="M125.118,66H71.374A5.374,5.374,0,0,0,66,71.374v53.744a5.374,5.374,0,0,0,5.374,5.374h53.744a5.374,5.374,0,0,0,5.374-5.374V71.374A5.374,5.374,0,0,0,125.118,66Zm-5.374,53.744h-43v-43h43Zm0,0" transform="translate(-30.529 -30.529)" fill="#fff"/>
  <path id="Path_56" data-name="Path 56" d="M390.493,71.374A5.374,5.374,0,0,0,385.118,66H331.374A5.374,5.374,0,0,0,326,71.374v53.744a5.374,5.374,0,0,0,5.374,5.374h53.744a5.374,5.374,0,0,0,5.374-5.374Zm-10.749,48.37h-43v-43h43Zm0,0" transform="translate(-150.794 -30.529)" fill="#fff"/>
  <path id="Path_57" data-name="Path 57" d="M390.493,385.118V331.374A5.374,5.374,0,0,0,385.118,326H331.374A5.374,5.374,0,0,0,326,331.374v53.744a5.374,5.374,0,0,0,5.374,5.374h53.744A5.374,5.374,0,0,0,390.493,385.118Zm-10.749-5.374h-43v-43h43Zm0,0" transform="translate(-150.794 -150.794)" fill="#fff"/>
  <path id="Path_58" data-name="Path 58" d="M122.123,366H111.374A5.374,5.374,0,0,0,106,371.374v10.749a5.374,5.374,0,0,0,5.374,5.374h10.749a5.374,5.374,0,0,0,5.374-5.374V371.374A5.374,5.374,0,0,0,122.123,366Zm0,0" transform="translate(-49.031 -169.297)" fill="#fff"/>
  <path id="Path_59" data-name="Path 59" d="M111.374,127.5h10.749a5.374,5.374,0,0,0,5.374-5.374V111.374A5.374,5.374,0,0,0,122.123,106H111.374A5.374,5.374,0,0,0,106,111.374v10.749A5.374,5.374,0,0,0,111.374,127.5Zm0,0" transform="translate(-49.031 -49.031)" fill="#fff"/>
  <path id="Path_60" data-name="Path 60" d="M371.374,127.5h10.749a5.374,5.374,0,0,0,5.374-5.374V111.374A5.374,5.374,0,0,0,382.123,106H371.374A5.374,5.374,0,0,0,366,111.374v10.749A5.374,5.374,0,0,0,371.374,127.5Zm0,0" transform="translate(-169.297 -49.031)" fill="#fff"/>
  <path id="Path_61" data-name="Path 61" d="M371.374,387.5h10.749a5.374,5.374,0,0,0,5.374-5.374V371.374A5.374,5.374,0,0,0,382.123,366H371.374A5.374,5.374,0,0,0,366,371.374v10.749A5.374,5.374,0,0,0,371.374,387.5Zm0,0" transform="translate(-169.297 -169.297)" fill="#fff"/>
  <path id="Path_62" data-name="Path 62" d="M106,271.374a5.374,5.374,0,0,0,5.374,5.374h69.867v26.872a5.374,5.374,0,0,0,10.749,0V271.374A5.374,5.374,0,0,0,186.616,266H111.374A5.374,5.374,0,0,0,106,271.374Zm0,0" transform="translate(-49.031 -123.041)" fill="#fff"/>
  <path id="Path_63" data-name="Path 63" d="M125.118,236.749a5.374,5.374,0,1,0,0-10.749H71.374a5.374,5.374,0,1,0,0,10.749Zm0,0" transform="translate(-30.529 -104.538)" fill="#fff"/>
  <path id="Path_64" data-name="Path 64" d="M211.374,236.749h21.5a5.374,5.374,0,0,0,0-10.749h-21.5a5.374,5.374,0,1,0,0,10.749Zm0,0" transform="translate(-95.287 -104.538)" fill="#fff"/>
  <path id="Path_65" data-name="Path 65" d="M211.374,66A5.374,5.374,0,0,0,206,71.374v53.744a5.374,5.374,0,0,0,5.374,5.374H249v26.872a5.374,5.374,0,0,0,5.374,5.374h21.5a5.374,5.374,0,1,0,0-10.749H259.744V125.118a5.374,5.374,0,0,0-5.374-5.374H216.749V71.374A5.374,5.374,0,0,0,211.374,66Zm0,0" transform="translate(-95.287 -30.529)" fill="#fff"/>
  <path id="Path_66" data-name="Path 66" d="M403.621,226H371.374a5.374,5.374,0,1,0,0,10.749h32.246a5.374,5.374,0,0,0,0-10.749Zm0,0" transform="translate(-169.297 -104.538)" fill="#fff"/>
  <path id="Path_67" data-name="Path 67" d="M385.118,266H331.374a5.374,5.374,0,0,0,0,10.749h53.744a5.374,5.374,0,0,0,0-10.749Zm0,0" transform="translate(-150.794 -123.041)" fill="#fff"/>
  <path id="Path_68" data-name="Path 68" d="M232.872,366h-21.5A5.374,5.374,0,0,0,206,371.374v32.246a5.374,5.374,0,0,0,10.749,0V376.749h16.123a5.374,5.374,0,0,0,0-10.749Zm0,0" transform="translate(-95.287 -169.297)" fill="#fff"/>
  <path id="Path_69" data-name="Path 69" d="M267.5,370.493H251.374a5.374,5.374,0,0,0,0,10.749h21.5a5.374,5.374,0,0,0,5.374-5.374V311.374a5.374,5.374,0,0,0-10.749,0Zm0,0" transform="translate(-113.79 -141.543)" fill="#fff"/>
  <path id="Path_70" data-name="Path 70" d="M272.872,109a5.374,5.374,0,0,0,5.374-5.374V71.374a5.374,5.374,0,1,0-10.749,0V98.246H251.374a5.374,5.374,0,0,0,0,10.749Zm0,0" transform="translate(-113.79 -30.529)" fill="#fff"/>
</svg>
