<svg xmlns="http://www.w3.org/2000/svg" width="1114" height="1114" viewBox="0 0 1114 1114">
  <g id="Group_53" data-name="Group 53" transform="translate(-783 -163)">
    <g id="Ellipse_43" data-name="Ellipse 43" transform="translate(932 312)" fill="#ffc12c" stroke="#fff" stroke-width="3">
      <circle cx="408" cy="408" r="408" stroke="none"/>
      <circle cx="408" cy="408" r="406.5" fill="none"/>
    </g>
    <g id="Ellipse_44" data-name="Ellipse 44" transform="translate(861 241)" fill="none" stroke="#fff" stroke-width="3" opacity="0.522">
      <circle cx="479" cy="479" r="479" stroke="none"/>
      <circle cx="479" cy="479" r="477.5" fill="none"/>
    </g>
    <g id="Ellipse_45" data-name="Ellipse 45" transform="translate(783 163)" fill="none" stroke="#fff" stroke-width="3" opacity="0.184">
      <circle cx="557" cy="557" r="557" stroke="none"/>
      <circle cx="557" cy="557" r="555.5" fill="none"/>
    </g>
    <g id="Group_51" data-name="Group 51" transform="translate(0 5)">
      <g id="Ellipse_46" data-name="Ellipse 46" transform="translate(1160 241)" fill="none" stroke="#fff" stroke-width="1" opacity="0.587">
        <circle cx="24" cy="24" r="24" stroke="none"/>
        <circle cx="24" cy="24" r="23.5" fill="none"/>
      </g>
      <g id="Ellipse_47" data-name="Ellipse 47" transform="translate(1168 249)" fill="none" stroke="#fff" stroke-width="1" opacity="0.587">
        <circle cx="16" cy="16" r="16" stroke="none"/>
        <circle cx="16" cy="16" r="15.5" fill="none"/>
      </g>
      <circle id="Ellipse_48" data-name="Ellipse 48" cx="6" cy="6" r="6" transform="translate(1178 259)" fill="#fff" opacity="0.587"/>
    </g>
    <g id="Group_52" data-name="Group 52" transform="translate(465 92)">
      <g id="Ellipse_49" data-name="Ellipse 49" transform="translate(1160 241)" fill="none" stroke="#fff" stroke-width="1" opacity="0.587">
        <circle cx="24" cy="24" r="24" stroke="none"/>
        <circle cx="24" cy="24" r="23.5" fill="none"/>
      </g>
      <g id="Ellipse_50" data-name="Ellipse 50" transform="translate(1168 249)" fill="none" stroke="#fff" stroke-width="1" opacity="0.587">
        <circle cx="16" cy="16" r="16" stroke="none"/>
        <circle cx="16" cy="16" r="15.5" fill="none"/>
      </g>
      <circle id="Ellipse_51" data-name="Ellipse 51" cx="6" cy="6" r="6" transform="translate(1178 259)" fill="#fff" opacity="0.587"/>
    </g>
  </g>
</svg>
