<svg xmlns="http://www.w3.org/2000/svg" width="110.625" height="140.039" viewBox="0 0 110.625 140.039">
  <g id="Grupo_466" data-name="Grupo 466" transform="translate(-4900.404 654.15) rotate(-90)">
    <g id="Grupo_455" data-name="Grupo 455" transform="translate(624.609 4986.469) rotate(90)">
      <g id="Grupo_420" data-name="Grupo 420" transform="translate(0 0)">
        <g id="Grupo_419" data-name="Grupo 419">
          <path id="Trazado_1024" data-name="Trazado 1024" d="M23.679,12.69h0A18.676,18.676,0,0,1,0,.992H0a18.675,18.675,0,0,1,23.679,11.7Z" fill="#373449"/>
        </g>
      </g>
    </g>
    <g id="Grupo_456" data-name="Grupo 456" transform="translate(635.684 4986.754) rotate(90)">
      <g id="Grupo_423" data-name="Grupo 423" transform="translate(0 0)">
        <g id="Grupo_422" data-name="Grupo 422">
          <path id="Trazado_1025" data-name="Trazado 1025" d="M24.275,1.342h0A18.673,18.673,0,0,0,0,11.741H0a18.671,18.671,0,0,0,24.275-10.4Z" fill="#373449"/>
        </g>
      </g>
    </g>
    <g id="Grupo_457" data-name="Grupo 457" transform="translate(654.15 4930.595) rotate(150)">
      <g id="Grupo_426" data-name="Grupo 426" transform="translate(0 0)">
        <g id="Grupo_425" data-name="Grupo 425">
          <path id="Trazado_1026" data-name="Trazado 1026" d="M0,.7H0A13.123,13.123,0,0,1,16.639,8.918h0A13.126,13.126,0,0,1,0,.7Z" fill="#373449"/>
        </g>
      </g>
    </g>
    <g id="Grupo_458" data-name="Grupo 458" transform="translate(650.584 4923.176) rotate(150)">
      <g id="Grupo_429" data-name="Grupo 429" transform="translate(0 0)">
        <g id="Grupo_428" data-name="Grupo 428">
          <path id="Trazado_1027" data-name="Trazado 1027" d="M0,8.246H0A13.124,13.124,0,0,0,17.06.943h0A13.124,13.124,0,0,0,0,8.246Z" fill="#373449"/>
        </g>
      </g>
    </g>
    <g id="Grupo_459" data-name="Grupo 459" transform="translate(539.047 4986.469) rotate(90)">
      <g id="Grupo_432" data-name="Grupo 432" transform="translate(0 0)">
        <g id="Grupo_431" data-name="Grupo 431">
          <path id="Trazado_1028" data-name="Trazado 1028" d="M23.679,12.69h0A18.676,18.676,0,0,1,0,.992H0a18.675,18.675,0,0,1,23.679,11.7Z" fill="#373449"/>
        </g>
      </g>
    </g>
    <g id="Grupo_460" data-name="Grupo 460" transform="translate(550.123 4986.754) rotate(90)">
      <g id="Grupo_435" data-name="Grupo 435" transform="translate(0 0)">
        <g id="Grupo_434" data-name="Grupo 434">
          <path id="Trazado_1029" data-name="Trazado 1029" d="M24.275,1.342h0A18.673,18.673,0,0,0,0,11.741H0a18.674,18.674,0,0,0,24.275-10.4Z" fill="#373449"/>
        </g>
      </g>
    </g>
    <g id="Grupo_461" data-name="Grupo 461" transform="matrix(0.857, 0.515, -0.515, 0.857, 523.113, 4908.809)">
      <g id="Grupo_438" data-name="Grupo 438" transform="translate(0 0)">
        <g id="Grupo_437" data-name="Grupo 437">
          <path id="Trazado_1030" data-name="Trazado 1030" d="M0,.662H0A12.441,12.441,0,0,1,15.777,8.455h0A12.441,12.441,0,0,1,0,.662Z" fill="#373449"/>
        </g>
      </g>
    </g>
    <g id="Grupo_462" data-name="Grupo 462" transform="matrix(0.857, 0.515, -0.515, 0.857, 518.601, 4915.175)">
      <g id="Grupo_441" data-name="Grupo 441" transform="translate(0 0)">
        <g id="Grupo_440" data-name="Grupo 440">
          <path id="Trazado_1031" data-name="Trazado 1031" d="M0,7.821H0A12.441,12.441,0,0,0,16.176.9h0A12.441,12.441,0,0,0,0,7.821Z" fill="#373449"/>
        </g>
      </g>
    </g>
    <g id="Grupo_463" data-name="Grupo 463" transform="translate(632.052 4900.404) rotate(90)">
      <g id="Grupo_416" data-name="Grupo 416" transform="translate(0 0)">
        <g id="Grupo_408" data-name="Grupo 408" transform="translate(67.972 36.56)">
          <path id="Trazado_1015" data-name="Trazado 1015" d="M.164,13.423A15.671,15.671,0,1,0,17.925.165,15.671,15.671,0,0,0,.164,13.423Z" transform="translate(0 0)" fill="#05f"/>
        </g>
        <g id="Grupo_409" data-name="Grupo 409" transform="translate(0 31.409)">
          <path id="Trazado_1016" data-name="Trazado 1016" d="M.165,13.423A15.672,15.672,0,1,0,17.926.164,15.672,15.672,0,0,0,.165,13.423Z" transform="translate(0 0)" fill="#05f"/>
        </g>
        <g id="Grupo_410" data-name="Grupo 410" transform="translate(36.559)">
          <path id="Trazado_1017" data-name="Trazado 1017" d="M13.424,31.181A15.671,15.671,0,1,0,.165,13.419,15.671,15.671,0,0,0,13.424,31.181Z" transform="translate(0)" fill="#05f"/>
        </g>
        <g id="Grupo_411" data-name="Grupo 411" transform="translate(31.412 67.97)">
          <path id="Trazado_1018" data-name="Trazado 1018" d="M13.419,31.183A15.672,15.672,0,1,0,.165,13.422,15.672,15.672,0,0,0,13.419,31.183Z" transform="translate(0 0)" fill="#05f"/>
        </g>
        <g id="Grupo_412" data-name="Grupo 412" transform="translate(11.776 8.131)">
          <path id="Trazado_1019" data-name="Trazado 1019" d="M25.048,28.23A15.671,15.671,0,1,0,3.116,25.049,15.671,15.671,0,0,0,25.048,28.23Z" transform="translate(0 0)" fill="#05f"/>
        </g>
        <g id="Grupo_413" data-name="Grupo 413" transform="translate(56.195 59.838)">
          <path id="Trazado_1020" data-name="Trazado 1020" d="M25.05,28.228A15.671,15.671,0,1,0,3.114,25.047,15.671,15.671,0,0,0,25.05,28.228Z" transform="translate(0 0)" fill="#05f"/>
        </g>
        <g id="Grupo_414" data-name="Grupo 414" transform="translate(8.132 56.192)">
          <path id="Trazado_1021" data-name="Trazado 1021" d="M28.236,6.3a15.673,15.673,0,1,0-3.187,21.932A15.673,15.673,0,0,0,28.236,6.3Z" transform="translate(0 0)" fill="#05f"/>
        </g>
        <g id="Grupo_415" data-name="Grupo 415" transform="translate(59.839 11.773)">
          <path id="Trazado_1022" data-name="Trazado 1022" d="M28.234,6.3a15.673,15.673,0,1,0-3.187,21.936A15.673,15.673,0,0,0,28.234,6.3Z" transform="translate(0 0)" fill="#05f"/>
        </g>
      </g>
    </g>
    <circle id="Elipse_135" data-name="Elipse 135" cx="28.745" cy="28.745" r="28.745" transform="translate(542.645 4941.543) rotate(-32.88)" fill="#ffc417"/>
    <path id="Trazado_1032" data-name="Trazado 1032" d="M.18,14.237A16.661,16.661,0,1,0,19.086.179,16.661,16.661,0,0,0,.18,14.237Z" transform="translate(599.054 4933.401) rotate(90)" fill="#fff"/>
  </g>
</svg>
