<svg xmlns="http://www.w3.org/2000/svg" xmlns:xlink="http://www.w3.org/1999/xlink" width="188.66" height="188.665" viewBox="0 0 188.66 188.665">
  <defs>
    <filter id="Trazado_605" x="0" y="0" width="188.66" height="188.665" filterUnits="userSpaceOnUse">
      <feOffset dy="3" input="SourceAlpha"/>
      <feGaussianBlur stdDeviation="20" result="blur"/>
      <feFlood flood-color="#ffc12c" flood-opacity="0.435"/>
      <feComposite operator="in" in2="blur"/>
      <feComposite in="SourceGraphic"/>
    </filter>
  </defs>
  <g id="Grupo_359" data-name="Grupo 359" transform="translate(-858.647 -2480.759)">
    <g id="Grupo_181" data-name="Grupo 181" transform="translate(930.201 2502)">
      <g id="Grupo_179" data-name="Grupo 179" transform="translate(0 0)">
        <circle id="Elipse_40" data-name="Elipse 40" cx="24.51" cy="24.51" r="24.51" fill="#014fc8"/>
      </g>
      <g id="Grupo_180" data-name="Grupo 180" transform="translate(13.028 7.48)">
        <path id="Trazado_591" data-name="Trazado 591" d="M1041.647,4466.418h-14.28a4.342,4.342,0,0,1-4.342-4.342v-.526a9.118,9.118,0,0,1,9.118-9.118h4.738a9.118,9.118,0,0,1,9.118,9.118v.526a4.341,4.341,0,0,1-4.351,4.342Z" transform="translate(-1023.025 -4436.507)" fill="#fefefe"/>
        <circle id="Elipse_41" data-name="Elipse 41" cx="6.465" cy="6.465" r="6.465" transform="translate(5.017 0)" fill="#fefefe"/>
      </g>
    </g>
    <g id="Grupo_186" data-name="Grupo 186" transform="translate(966.691 2521.38)">
      <path id="Trazado_598" data-name="Trazado 598" d="M1132.059,4468.94a26.214,26.214,0,0,1-23.911,26.111c-.754.066-1.522.1-2.3.1a6.117,6.117,0,0,1-.62-.021,24.6,24.6,0,0,1-5.006-.588,26.244,26.244,0,0,1-19.75-32.2,24.439,24.439,0,0,1,.957-2.937,25.655,25.655,0,0,1,3.154-5.786,26.2,26.2,0,0,1,47.47,15.324Z" transform="translate(-1079.638 -4442.719)" fill="#0062ff"/>
    </g>
    <g id="Grupo_187" data-name="Grupo 187" transform="translate(980.624 2529.384)">
      <path id="Trazado_599" data-name="Trazado 599" d="M1133.168,4518.086H1117.9a4.649,4.649,0,0,1-4.644-4.644v-.563a9.743,9.743,0,0,1,9.743-9.743h5.065a9.744,9.744,0,0,1,9.743,9.743v.563A4.649,4.649,0,0,1,1133.168,4518.086Z" transform="translate(-1113.252 -4486.098)" fill="#fefefe"/>
      <circle id="Elipse_48" data-name="Elipse 48" cx="6.913" cy="6.913" r="6.913" transform="translate(5.366 0)" fill="#fefefe"/>
    </g>
    <g id="Grupo_191" data-name="Grupo 191" transform="translate(885.991 2516.996)">
      <g id="Grupo_189" data-name="Grupo 189" transform="translate(0 0)">
        <path id="Trazado_600" data-name="Trazado 600" d="M937.358,4458.355a26.207,26.207,0,0,1-19.6,25.372,25.668,25.668,0,0,1-5.209.8c-.457.032-.936.042-1.4.042-.6,0-1.2-.021-1.788-.064a26.212,26.212,0,1,1,25.318-37.693,24.631,24.631,0,0,1,1.175,2.806,25.307,25.307,0,0,1,1.4,6.568C937.325,4456.9,937.358,4457.626,937.358,4458.355Z" transform="translate(-884.931 -4432.143)" fill="#0062ff"/>
      </g>
      <g id="Grupo_190" data-name="Grupo 190" transform="translate(13.936 8.003)">
        <path id="Trazado_601" data-name="Trazado 601" d="M938.461,4507.5H923.189a4.643,4.643,0,0,1-4.644-4.643v-.563a9.744,9.744,0,0,1,9.743-9.744h5.065a9.743,9.743,0,0,1,9.743,9.743v.564a4.642,4.642,0,0,1-4.635,4.643Z" transform="translate(-918.545 -4475.516)" fill="#fefefe"/>
        <circle id="Elipse_49" data-name="Elipse 49" cx="6.913" cy="6.913" r="6.913" transform="translate(5.366 0)" fill="#fefefe"/>
      </g>
    </g>
    <g transform="matrix(1, 0, 0, 1, 858.65, 2480.76)" filter="url(#Trazado_605)">
      <path id="Trazado_605-2" data-name="Trazado 605" d="M1032.368,4516.584c0,.37-.011.74-.021,1.11-.033.935-.1,1.86-.218,2.771a34.3,34.3,0,0,1-55.779,22.718,34.915,34.915,0,0,1-4.612-4.535,34.182,34.182,0,0,1-7.852-18.553c-.109-1.162-.173-2.324-.173-3.514,0-.173,0-.357.011-.536.012-1,.077-1.991.164-2.979a34.35,34.35,0,0,1,19.5-27.537c.228-.109.468-.218.7-.316a34.349,34.349,0,0,1,28.275.163c.076.033.163.076.239.109a34.7,34.7,0,0,1,7.508,4.8,34.236,34.236,0,0,1,12.267,26.3Z" transform="translate(-903.71 -4425.25)" fill="#ffc417"/>
    </g>
    <path id="Trazado_606" data-name="Trazado 606" d="M1033.83,4580.938h-20a6.078,6.078,0,0,1-6.078-6.079v-.737a12.765,12.765,0,0,1,12.765-12.765h6.633a12.765,12.765,0,0,1,12.765,12.765v.737a6.078,6.078,0,0,1-6.084,6.079Z" transform="translate(-70.852 -1990.805)" fill="#fefefe"/>
    <circle id="Elipse_50" data-name="Elipse 50" cx="9.054" cy="9.054" r="9.054" transform="translate(943.925 2548.241)" fill="#fefefe"/>
  </g>
</svg>
