<svg xmlns="http://www.w3.org/2000/svg" width="365" height="538.588" viewBox="0 0 365 538.588">
  <g id="svg17" transform="translate(0.002)">
    <g id="Grupo_384" data-name="Grupo 384">
      <g id="Grupo_369" data-name="Grupo 369" transform="translate(250.129)">
        <path id="Trazado_945" data-name="Trazado 945" d="M443.858,127s27.714.736,30.506,32.548A49.285,49.285,0,0,0,444.1,200.339l-.24-.007Z" transform="translate(-443.858 -127)" fill="#fcedd8"/>
        <path id="Trazado_946" data-name="Trazado 946" d="M447.558,131.5v39.119s16.4.842,16.4-18.929S447.558,131.5,447.558,131.5Z" transform="translate(-441.918 -121.206)" fill="#ff855c" opacity="0.45"/>
      </g>
      <g id="Grupo_370" data-name="Grupo 370" transform="translate(328.879)">
        <path id="Trazado_947" data-name="Trazado 947" d="M409.436,159.194C412.4,127.727,439.915,127,439.915,127v68.187A49.312,49.312,0,0,0,409.436,159.194Z" transform="translate(-409.436 -127)" fill="#fcedd8"/>
        <path id="Trazado_948" data-name="Trazado 948" d="M428.308,131.5v39.119s-16.4.842-16.4-18.929S428.308,131.5,428.308,131.5Z" transform="translate(-403.471 -121.206)" fill="#ff855c" opacity="0.45"/>
      </g>
      <g id="Grupo_372" data-name="Grupo 372" transform="translate(53.074 386.282)">
        <path id="Trazado_949" data-name="Trazado 949" d="M572.579,314.548,574.5,427.631a18.967,18.967,0,0,1-18.641,19.286h0a34.461,34.461,0,0,1-35.039-33.868l-1.663-97.593A18.965,18.965,0,0,1,537.8,296.172l15.49-.265a18.967,18.967,0,0,1,19.289,18.641Z" transform="translate(-519.159 -295.904)" fill="#fddfbb"/>
        <g id="Grupo_371" data-name="Grupo 371" transform="translate(35.129 123.093)">
          <path id="Trazado_950" data-name="Trazado 950" d="M510,377.8h41.166v-5.333a22.736,22.736,0,0,0-22.734-22.735h-9.821a8.612,8.612,0,0,0-8.61,8.609Z" transform="translate(-510 -349.727)" fill="#373449"/>
          <path id="Trazado_951" data-name="Trazado 951" d="M525.526,374.083h.03a1.144,1.144,0,0,0,1.114-1.173c-.494-19.188-9.441-19.41-9.82-19.41a1.144,1.144,0,0,0-.016,2.287c.142.007,7.12.51,7.549,17.182a1.144,1.144,0,0,0,1.143,1.114Z" transform="translate(-498.553 -344.871)" fill="#fcedd8"/>
        </g>
      </g>
      <g id="Grupo_374" data-name="Grupo 374" transform="translate(231.668 398.476)">
        <path id="Trazado_952" data-name="Trazado 952" d="M494.579,319.878l1.721,100.89a18.967,18.967,0,0,1-18.641,19.286h0a34.46,34.46,0,0,1-35.039-33.868l-1.455-85.4A18.964,18.964,0,0,1,459.8,301.5l15.492-.263a18.965,18.965,0,0,1,19.287,18.641Z" transform="translate(-441.159 -301.236)" fill="#fddfbb"/>
        <g id="Grupo_373" data-name="Grupo 373" transform="translate(34.921 110.899)">
          <path id="Trazado_953" data-name="Trazado 953" d="M432,377.8h41.166v-5.333a22.736,22.736,0,0,0-22.734-22.735h-9.821A8.612,8.612,0,0,0,432,358.337Z" transform="translate(-432 -349.727)" fill="#373449"/>
          <path id="Trazado_954" data-name="Trazado 954" d="M447.526,374.083h.03a1.144,1.144,0,0,0,1.114-1.173c-.494-19.188-9.441-19.41-9.82-19.41a1.144,1.144,0,0,0-.016,2.287c.142.007,7.119.51,7.549,17.182a1.144,1.144,0,0,0,1.143,1.114Z" transform="translate(-420.553 -344.871)" fill="#fcedd8"/>
        </g>
      </g>
      <g id="Grupo_378" data-name="Grupo 378" transform="translate(0 28.828)">
        <g id="Grupo_375" data-name="Grupo 375">
          <path id="Trazado_955" data-name="Trazado 955" d="M589.516,233.245h4.4a79.033,79.033,0,0,0-25.951,58.645v5.189h-8.178a14.476,14.476,0,0,1-14.474-14.472v-5.164a44.2,44.2,0,0,1,44.2-44.2Z" transform="translate(-545.315 -19.091)" fill="#fddfbb"/>
          <path id="Trazado_956" data-name="Trazado 956" d="M435.865,353.759a78.955,78.955,0,0,1,53.287-20.592H637.391V188.874c0-1.6.089-3.19.24-4.757A49.284,49.284,0,0,1,686.659,139.6h11.689a49.216,49.216,0,0,1,49.269,49.269l-.034,178.269c0,.224-2.925,77.344-2.925,77.344-1.006,52.372-43.544,95.31-99.388,104.879l1.354,79.42a18.963,18.963,0,0,1-18.639,19.284h0c-19.028.325-12.686.883-13.011-18.145l-25.56-109.373H506.533C494.8,532.19,480.656,539.561,466.8,544.174l1.571,92.278a11.291,11.291,0,0,1-11.1,11.483,20.481,20.481,0,0,1-20.684-18.015l-20.3-59.208a132.14,132.14,0,0,1-7.14-42.689,25.376,25.376,0,0,1-.142-3.106l.855-44.427c.046-2.424.055-11.751.055-14.092v-54a79.033,79.033,0,0,1,25.953-58.639Z" transform="translate(-387.262 -139.605)" fill="#fcedd8"/>
        </g>
        <g id="Grupo_376" data-name="Grupo 376" transform="translate(47.037 480.548)">
          <path id="Trazado_957" data-name="Trazado 957" d="M528,377.8h41.166v-5.333a22.736,22.736,0,0,0-22.734-22.735h-9.821A8.612,8.612,0,0,0,528,358.337Z" transform="translate(-528 -349.727)" fill="#373449"/>
          <path id="Trazado_958" data-name="Trazado 958" d="M543.526,374.083h.03a1.144,1.144,0,0,0,1.114-1.173c-.494-19.188-9.441-19.41-9.82-19.41a1.144,1.144,0,0,0-.016,2.287c.142.007,7.12.51,7.549,17.182a1.144,1.144,0,0,0,1.143,1.114Z" transform="translate(-516.553 -344.871)" fill="#fcedd8"/>
        </g>
        <g id="Grupo_377" data-name="Grupo 377" transform="translate(225.422 480.548)">
          <path id="Trazado_959" data-name="Trazado 959" d="M450,377.8h41.166v-5.333a22.736,22.736,0,0,0-22.734-22.735h-9.821A8.612,8.612,0,0,0,450,358.337Z" transform="translate(-450 -349.727)" fill="#373449"/>
          <path id="Trazado_960" data-name="Trazado 960" d="M465.526,374.083h.03a1.144,1.144,0,0,0,1.114-1.173c-.494-19.188-9.441-19.41-9.82-19.41a1.144,1.144,0,0,0-.016,2.287c.142.007,7.119.51,7.549,17.182a1.144,1.144,0,0,0,1.143,1.114Z" transform="translate(-438.553 -344.871)" fill="#fcedd8"/>
        </g>
      </g>
      <g id="Grupo_382" data-name="Grupo 382" transform="translate(258.793 72.396)">
        <path id="Trazado_961" data-name="Trazado 961" d="M426.712,158.89a16.774,16.774,0,0,1,13.944,3.966,8.245,8.245,0,0,0,8.2,1.747,22.751,22.751,0,0,1,7.593-1.3h4.165a24.351,24.351,0,0,1,7.206,1.084,11,11,0,0,0,10.372-1.857,16.81,16.81,0,1,1,10.74,29.74,16.388,16.388,0,0,1-2.843-.254.914.914,0,0,0-1.093.89h0a11.881,11.881,0,0,1-11.881,11.881h-25.6a14.007,14.007,0,0,1-13.811-11.7,1.251,1.251,0,0,0-1.452-1.047,16.289,16.289,0,0,1-2.689.229,16.812,16.812,0,0,1-2.847-33.383Z" transform="translate(-412.751 -158.655)" fill="#fddfbb"/>
        <g id="Grupo_381" data-name="Grupo 381" transform="translate(6.603 13.631)">
          <g id="Grupo_379" data-name="Grupo 379" transform="translate(25.384 6.325)">
            <path id="Trazado_962" data-name="Trazado 962" d="M428.436,169.643a1.145,1.145,0,0,1,1.246,1.029c.021.22.563,5.4,4.414,5.425,4.188-.007,5.228-1.72,5.928-5.4a.5.5,0,0,1,.025-.062,1.024,1.024,0,0,1,.094-.231,1.073,1.073,0,0,1,.092-.167,1.122,1.122,0,0,1,.181-.181,1.456,1.456,0,0,1,.133-.11,1.094,1.094,0,0,1,.238-.1,1.177,1.177,0,0,1,.181-.055.737.737,0,0,1,.075-.023,1.312,1.312,0,0,1,.162.018,1.172,1.172,0,0,1,.155,0c.025,0,.046.023.071.03a.953.953,0,0,1,.174.071,1.122,1.122,0,0,1,.231.126.953.953,0,0,1,.108.107,1.065,1.065,0,0,1,.178.213,1.175,1.175,0,0,1,.071.165,1.24,1.24,0,0,1,.073.242c0,.023.018.041.021.064,0,.055.54,5.4,4.414,5.422,4.206,0,5.228-1.72,5.926-5.4a1.144,1.144,0,1,1,2.248.425c-.716,3.774-2.189,7.263-8.085,7.263h-.107a6.175,6.175,0,0,1-5.573-3.764c-1.093,2.111-3.039,3.636-6.923,3.636h-.108c-4.736-.034-6.436-4.919-6.674-7.5a1.143,1.143,0,0,1,1.031-1.243Z" transform="translate(-427.4 -164.48)" fill="#373449"/>
            <path id="Trazado_963" data-name="Trazado 963" d="M437.8,174.134l8.441-4.6a1.143,1.143,0,1,0-1.093-2.008l-7.3,3.977-6.591-3.954a1.142,1.142,0,1,0-1.173,1.96Z" transform="translate(-424.215 -167.382)" fill="#fb8057"/>
          </g>
          <g id="Grupo_380" data-name="Grupo 380">
            <path id="Trazado_964" data-name="Trazado 964" d="M451.261,177.5c-6.95-.268-9.015-6.966-9.125-10.6a1.763,1.763,0,1,1,3.524-.105c.027.75.423,7.369,6.285,7.186,5.992-.178,5.85-7.247,5.841-7.547a1.763,1.763,0,1,1,3.524-.1c.112,3.767-1.679,10.948-9.262,11.177C451.78,177.508,451.517,177.508,451.261,177.5Z" transform="translate(-442.135 -164.616)" fill="#373449"/>
            <path id="Trazado_965" data-name="Trazado 965" d="M425.1,177.5c-6.95-.268-9.015-6.966-9.125-10.6a1.763,1.763,0,1,1,3.524-.105c.027.75.423,7.369,6.285,7.186,5.992-.178,5.85-7.247,5.841-7.547a1.763,1.763,0,1,1,3.524-.1c.112,3.767-1.679,10.948-9.262,11.177C425.622,177.508,425.359,177.508,425.1,177.5Z" transform="translate(-356.154 -164.616)" fill="#373449"/>
          </g>
        </g>
      </g>
      <g id="Grupo_383" data-name="Grupo 383" transform="translate(250.129 105.202)">
        <path id="Trazado_966" data-name="Trazado 966" d="M454.742,173A19.439,19.439,0,1,1,444,208.636V176.243A19.351,19.351,0,0,1,454.742,173Z" transform="translate(-444 -173)" fill="#ff855c" opacity="0.45"/>
        <path id="Trazado_967" data-name="Trazado 967" d="M428.44,173a19.439,19.439,0,1,0,10.742,35.636V176.243A19.351,19.351,0,0,0,428.44,173Z" transform="translate(-328.955 -173)" fill="#ff855c" opacity="0.45"/>
        <path id="Trazado_968" data-name="Trazado 968" d="M428,183a11.435,11.435,0,0,0,22.87,0" transform="translate(-384.097 -160.13)" fill="#fddfbb"/>
      </g>
      <path id="Trazado_969" data-name="Trazado 969" d="M428.316,151.562a14.4,14.4,0,0,1,25.182-13.3,15.417,15.417,0,0,1,27.046,13.4,15.434,15.434,0,1,1-12.4,28.059,18.477,18.477,0,0,1-26.479-.819,15.435,15.435,0,1,1-13.347-27.339Z" transform="translate(-149.739 -120.048)" fill="#f7d7b5"/>
    </g>
    <g id="Grupo_443" data-name="Grupo 443" transform="translate(90.604 221.36)">
      <path id="Trazado_975" data-name="Trazado 975" d="M543.2,376.169H530.466a72.4,72.4,0,0,1-72.395-72.39V223.791H615.6v79.983a72.394,72.394,0,0,1-72.4,72.4Z" transform="translate(-458.071 -223.791)" fill="#ffc417"/>
      <g id="Grupo_407" data-name="Grupo 407" transform="translate(3.573 11.09)">
        <g id="Grupo_406" data-name="Grupo 406">
          <g id="Grupo_388" data-name="Grupo 388" transform="translate(133.337)">
            <path id="Trazado_976" data-name="Trazado 976" d="M466.872,245.8a8.629,8.629,0,1,0-7.235-9.825,8.629,8.629,0,0,0,7.235,9.825Z" transform="translate(-459.538 -228.64)" fill="#373449"/>
          </g>
          <g id="Grupo_389" data-name="Grupo 389" transform="translate(133.218 18.366)">
            <path id="Trazado_977" data-name="Trazado 977" d="M466.927,254.086a8.63,8.63,0,1,0-7.237-9.827,8.63,8.63,0,0,0,7.237,9.827Z" transform="translate(-459.591 -236.924)" fill="#373449"/>
          </g>
          <g id="Grupo_390" data-name="Grupo 390" transform="translate(133.1 35.896)">
            <path id="Trazado_978" data-name="Trazado 978" d="M466.981,262.368a8.629,8.629,0,1,0-7.237-9.825,8.629,8.629,0,0,0,7.237,9.825Z" transform="translate(-459.645 -245.207)" fill="#373449"/>
          </g>
          <g id="Grupo_391" data-name="Grupo 391" transform="translate(132.983 53.844)">
            <path id="Trazado_979" data-name="Trazado 979" d="M467.032,270.653a8.63,8.63,0,1,0-7.235-9.827,8.63,8.63,0,0,0,7.235,9.827Z" transform="translate(-459.698 -253.491)" fill="#373449"/>
          </g>
          <g id="Grupo_392" data-name="Grupo 392" transform="translate(129.888 71.791)">
            <path id="Trazado_980" data-name="Trazado 980" d="M467.557,278.757a8.629,8.629,0,1,0-6.186-10.519,8.629,8.629,0,0,0,6.186,10.519Z" transform="translate(-461.093 -261.773)" fill="#373449"/>
          </g>
          <g id="Grupo_393" data-name="Grupo 393" transform="translate(120.965 86.328)">
            <path id="Trazado_981" data-name="Trazado 981" d="M472.455,285.643a8.625,8.625,0,1,0-5.655-3.414,8.629,8.629,0,0,0,5.655,3.414Z" transform="translate(-465.118 -268.482)" fill="#373449"/>
          </g>
          <g id="Grupo_394" data-name="Grupo 394" transform="translate(107.98 98.606)">
            <path id="Trazado_982" data-name="Trazado 982" d="M478.82,291.011a8.63,8.63,0,1,0-7.237-9.827,8.63,8.63,0,0,0,7.237,9.827Z" transform="translate(-471.484 -273.848)" fill="#373449"/>
          </g>
          <g id="Grupo_395" data-name="Grupo 395">
            <path id="Trazado_983" data-name="Trazado 983" d="M528.026,245.8a8.629,8.629,0,1,1,7.237-9.825A8.629,8.629,0,0,1,528.026,245.8Z" transform="translate(-518.101 -228.64)" fill="#373449"/>
          </g>
          <g id="Grupo_396" data-name="Grupo 396" transform="translate(0.119 18.366)">
            <path id="Trazado_984" data-name="Trazado 984" d="M527.971,254.086a8.63,8.63,0,1,1,7.237-9.827A8.63,8.63,0,0,1,527.971,254.086Z" transform="translate(-518.047 -236.924)" fill="#373449"/>
          </g>
          <g id="Grupo_397" data-name="Grupo 397" transform="translate(0.237 35.896)">
            <path id="Trazado_985" data-name="Trazado 985" d="M527.92,262.368a8.629,8.629,0,1,1,7.237-9.825A8.629,8.629,0,0,1,527.92,262.368Z" transform="translate(-517.994 -245.207)" fill="#373449"/>
          </g>
          <g id="Grupo_398" data-name="Grupo 398" transform="translate(0.355 53.844)">
            <path id="Trazado_986" data-name="Trazado 986" d="M527.866,270.653a8.63,8.63,0,1,1,7.237-9.827,8.63,8.63,0,0,1-7.237,9.827Z" transform="translate(-517.941 -253.491)" fill="#373449"/>
          </g>
          <g id="Grupo_399" data-name="Grupo 399" transform="translate(3.447 71.791)">
            <path id="Trazado_987" data-name="Trazado 987" d="M527.343,278.757a8.629,8.629,0,1,1,6.186-10.519,8.629,8.629,0,0,1-6.186,10.519Z" transform="translate(-516.545 -261.773)" fill="#373449"/>
          </g>
          <g id="Grupo_400" data-name="Grupo 400" transform="translate(12.372 86.328)">
            <path id="Trazado_988" data-name="Trazado 988" d="M522.446,285.643a8.629,8.629,0,1,1,7.237-9.827A8.629,8.629,0,0,1,522.446,285.643Z" transform="translate(-512.521 -268.482)" fill="#373449"/>
          </g>
          <g id="Grupo_401" data-name="Grupo 401" transform="translate(22.055 97.684)">
            <path id="Trazado_989" data-name="Trazado 989" d="M518.08,291.011a8.63,8.63,0,1,1,7.235-9.827A8.63,8.63,0,0,1,518.08,291.011Z" transform="translate(-508.154 -273.848)" fill="#373449"/>
          </g>
          <g id="Grupo_402" data-name="Grupo 402" transform="translate(90.863 106.608)">
            <path id="Trazado_990" data-name="Trazado 990" d="M485.529,295.036a8.63,8.63,0,1,0-7.237-9.827A8.63,8.63,0,0,0,485.529,295.036Z" transform="translate(-478.193 -277.874)" fill="#373449"/>
          </g>
          <g id="Grupo_403" data-name="Grupo 403" transform="translate(72.535 109.583)">
            <path id="Trazado_991" data-name="Trazado 991" d="M493.578,296.376a8.629,8.629,0,1,0-7.237-9.825,8.629,8.629,0,0,0,7.237,9.825Z" transform="translate(-486.242 -279.215)" fill="#373449"/>
          </g>
          <g id="Grupo_404" data-name="Grupo 404" transform="translate(54.207 109.583)">
            <path id="Trazado_992" data-name="Trazado 992" d="M501.628,296.376a8.629,8.629,0,1,0-7.237-9.825,8.629,8.629,0,0,0,7.237,9.825Z" transform="translate(-494.293 -279.215)" fill="#373449"/>
          </g>
          <g id="Grupo_405" data-name="Grupo 405" transform="translate(36.657 105.85)">
            <path id="Trazado_993" data-name="Trazado 993" d="M509.336,294.694a8.63,8.63,0,1,0-7.237-9.827A8.63,8.63,0,0,0,509.336,294.694Z" transform="translate(-502.001 -277.531)" fill="#373449"/>
          </g>
        </g>
      </g>
      <path id="Trazado_994" data-name="Trazado 994" d="M530.568,354.628h0c-37.351,0-67.629-26.122-67.629-58.346V223.791H598.2v72.491C598.2,328.506,567.917,354.628,530.568,354.628Z" transform="translate(-451.803 -223.791)" fill="#05f"/>
      <path id="Trazado_995" data-name="Trazado 995" d="M525.912,338.619h0c-32.782,0-59.354-22.927-59.354-51.206V223.791H585.265v63.622C585.265,315.692,558.692,338.619,525.912,338.619Z" transform="translate(-447.148 -223.791)" fill="#ffc417"/>
      <path id="Trazado_996" data-name="Trazado 996" d="M474.369,237.834a6.634,6.634,0,1,0-5.562-7.554A6.634,6.634,0,0,0,474.369,237.834Z" transform="translate(-348.854 -222.698)" fill="#373449"/>
      <path id="Trazado_997" data-name="Trazado 997" d="M474.411,244.007a6.633,6.633,0,1,0-5.564-7.554,6.633,6.633,0,0,0,5.564,7.554Z" transform="translate(-348.985 -214.752)" fill="#373449"/>
      <path id="Trazado_998" data-name="Trazado 998" d="M474.451,250.183a6.634,6.634,0,1,0-5.564-7.556,6.634,6.634,0,0,0,5.564,7.556Z" transform="translate(-349.116 -206.806)" fill="#373449"/>
      <path id="Trazado_999" data-name="Trazado 999" d="M474.489,256.357a6.634,6.634,0,1,0-5.562-7.556,6.634,6.634,0,0,0,5.562,7.556Z" transform="translate(-349.246 -198.86)" fill="#373449"/>
      <path id="Trazado_1000" data-name="Trazado 1000" d="M474.858,262.394a6.634,6.634,0,1,0-4.755-8.087,6.634,6.634,0,0,0,4.755,8.087Z" transform="translate(-352.664 -190.914)" fill="#373449"/>
      <path id="Trazado_1001" data-name="Trazado 1001" d="M478.53,267.531a6.634,6.634,0,1,0-5.564-7.556,6.634,6.634,0,0,0,5.564,7.556Z" transform="translate(-362.525 -184.479)" fill="#373449"/>
      <path id="Trazado_1002" data-name="Trazado 1002" d="M482.53,271.531a6.634,6.634,0,1,0-5.564-7.556,6.634,6.634,0,0,0,5.564,7.556Z" transform="translate(-375.673 -179.331)" fill="#373449"/>
      <path id="Trazado_1003" data-name="Trazado 1003" d="M518.52,237.834a6.634,6.634,0,1,1,5.564-7.554,6.634,6.634,0,0,1-5.564,7.554Z" transform="translate(-487.431 -222.698)" fill="#373449"/>
      <path id="Trazado_1004" data-name="Trazado 1004" d="M518.481,244.007a6.633,6.633,0,1,1,5.562-7.554,6.633,6.633,0,0,1-5.562,7.554Z" transform="translate(-487.3 -214.752)" fill="#373449"/>
      <path id="Trazado_1005" data-name="Trazado 1005" d="M518.443,250.183A6.634,6.634,0,1,1,524,242.627,6.634,6.634,0,0,1,518.443,250.183Z" transform="translate(-487.17 -206.806)" fill="#373449"/>
      <path id="Trazado_1006" data-name="Trazado 1006" d="M518.4,256.357a6.634,6.634,0,1,1,5.564-7.556A6.634,6.634,0,0,1,518.4,256.357Z" transform="translate(-487.039 -198.86)" fill="#373449"/>
      <path id="Trazado_1007" data-name="Trazado 1007" d="M518.031,262.394a6.634,6.634,0,1,1,4.757-8.087,6.634,6.634,0,0,1-4.757,8.087Z" transform="translate(-483.621 -190.914)" fill="#373449"/>
      <path id="Trazado_1008" data-name="Trazado 1008" d="M514.361,267.531a6.634,6.634,0,1,1,5.564-7.556,6.634,6.634,0,0,1-5.564,7.556Z" transform="translate(-473.76 -184.479)" fill="#373449"/>
      <path id="Trazado_1009" data-name="Trazado 1009" d="M510.361,271.531a6.634,6.634,0,1,1,5.564-7.556,6.634,6.634,0,0,1-5.564,7.556Z" transform="translate(-460.612 -179.331)" fill="#373449"/>
      <path id="Trazado_1010" data-name="Trazado 1010" d="M487.53,274.531a6.634,6.634,0,1,0-5.564-7.556,6.634,6.634,0,0,0,5.564,7.556Z" transform="translate(-392.108 -175.47)" fill="#373449"/>
      <path id="Trazado_1011" data-name="Trazado 1011" d="M493.53,275.531a6.634,6.634,0,1,0-5.564-7.556,6.634,6.634,0,0,0,5.564,7.556Z" transform="translate(-411.83 -174.183)" fill="#373449"/>
      <path id="Trazado_1012" data-name="Trazado 1012" d="M499.53,275.531a6.634,6.634,0,1,0-5.564-7.556A6.634,6.634,0,0,0,499.53,275.531Z" transform="translate(-431.552 -174.183)" fill="#373449"/>
      <path id="Trazado_1013" data-name="Trazado 1013" d="M504.53,273.531a6.634,6.634,0,1,0-5.564-7.556,6.634,6.634,0,0,0,5.564,7.556Z" transform="translate(-447.987 -176.757)" fill="#373449"/>
      <path id="Trazado_1014" data-name="Trazado 1014" d="M519.764,317.482h0c-26.746,0-48.429-18.7-48.429-41.781v-51.91h96.857V275.7C568.192,298.777,546.511,317.482,519.764,317.482Z" transform="translate(-441 -223.791)" fill="#05f"/>
      <g id="Grupo_418" data-name="Grupo 418" transform="translate(47.912 8.537)">
        <g id="Grupo_417" data-name="Grupo 417">
          <g id="Grupo_416" data-name="Grupo 416">
            <g id="Grupo_408" data-name="Grupo 408" transform="translate(43.604 23.453)">
              <path id="Trazado_1015" data-name="Trazado 1015" d="M478.247,246.39a10.053,10.053,0,1,0,11.394-8.505,10.053,10.053,0,0,0-11.394,8.505Z" transform="translate(-478.142 -237.779)" fill="#ffc417"/>
            </g>
            <g id="Grupo_409" data-name="Grupo 409" transform="translate(0 20.148)">
              <path id="Trazado_1016" data-name="Trazado 1016" d="M497.313,244.945a10.054,10.054,0,1,0,11.394-8.5,10.054,10.054,0,0,0-11.394,8.5Z" transform="translate(-497.207 -236.334)" fill="#ffc417"/>
            </g>
            <g id="Grupo_410" data-name="Grupo 410" transform="translate(23.454)">
              <path id="Trazado_1017" data-name="Trazado 1017" d="M495.562,247.526a10.053,10.053,0,1,0-8.5-11.394,10.053,10.053,0,0,0,8.5,11.394Z" transform="translate(-486.952 -227.524)" fill="#ffc417"/>
            </g>
            <g id="Grupo_411" data-name="Grupo 411" transform="translate(20.151 43.602)">
              <path id="Trazado_1018" data-name="Trazado 1018" d="M497.005,266.594a10.054,10.054,0,1,0-8.5-11.394,10.054,10.054,0,0,0,8.5,11.394Z" transform="translate(-488.397 -246.589)" fill="#ffc417"/>
            </g>
            <g id="Grupo_412" data-name="Grupo 412" transform="translate(7.554 5.217)">
              <path id="Trazado_1019" data-name="Trazado 1019" d="M509.973,247.916a10.053,10.053,0,1,0-14.07-2.042,10.053,10.053,0,0,0,14.07,2.042Z" transform="translate(-493.904 -229.805)" fill="#ffc417"/>
            </g>
            <g id="Grupo_413" data-name="Grupo 413" transform="translate(36.05 38.385)">
              <path id="Trazado_1020" data-name="Trazado 1020" d="M497.514,262.419a10.053,10.053,0,1,0-14.072-2.042,10.053,10.053,0,0,0,14.072,2.042Z" transform="translate(-481.445 -244.308)" fill="#ffc417"/>
            </g>
            <g id="Grupo_414" data-name="Grupo 414" transform="translate(5.219 36.05)">
              <path id="Trazado_1021" data-name="Trazado 1021" d="M513.037,247.326a10.054,10.054,0,1,0-2.044,14.07A10.054,10.054,0,0,0,513.037,247.326Z" transform="translate(-494.926 -243.287)" fill="#ffc417"/>
            </g>
            <g id="Grupo_415" data-name="Grupo 415" transform="translate(38.387 7.554)">
              <path id="Trazado_1022" data-name="Trazado 1022" d="M498.534,234.866a10.054,10.054,0,1,0-2.045,14.072,10.054,10.054,0,0,0,2.045-14.072Z" transform="translate(-480.423 -230.827)" fill="#ffc417"/>
            </g>
          </g>
        </g>
        <circle id="Elipse_131" data-name="Elipse 131" cx="18.44" cy="18.44" r="18.44" transform="translate(26.391 57.355) rotate(-122.88)" fill="#ffe8e7"/>
        <path id="Trazado_1023" data-name="Trazado 1023" d="M487.512,245.913a10.687,10.687,0,1,0,12.128-9.018,10.687,10.687,0,0,0-12.128,9.018Z" transform="translate(-466.229 -215.612)" fill="#373449"/>
      </g>
      <g id="Grupo_421" data-name="Grupo 421" transform="translate(103.123 13.312)">
        <g id="Grupo_420" data-name="Grupo 420">
          <g id="Grupo_419" data-name="Grupo 419">
            <path id="Trazado_1024" data-name="Trazado 1024" d="M490.407,237.752h0a11.981,11.981,0,0,1-15.19-7.5h0a11.98,11.98,0,0,1,15.19,7.5Z" transform="translate(-475.217 -229.612)" fill="#373449"/>
          </g>
        </g>
      </g>
      <g id="Grupo_424" data-name="Grupo 424" transform="translate(103.306 6.206)">
        <g id="Grupo_423" data-name="Grupo 423">
          <g id="Grupo_422" data-name="Grupo 422">
            <path id="Trazado_1025" data-name="Trazado 1025" d="M490.542,227.365h0a11.979,11.979,0,0,0-15.572,6.671h0a11.977,11.977,0,0,0,15.572-6.671Z" transform="translate(-474.97 -226.505)" fill="#373449"/>
          </g>
        </g>
      </g>
      <g id="Grupo_427" data-name="Grupo 427" transform="translate(44.137 4.807)">
        <g id="Grupo_426" data-name="Grupo 426">
          <g id="Grupo_425" data-name="Grupo 425">
            <path id="Trazado_1026" data-name="Trazado 1026" d="M501.009,226.529h0a11.98,11.98,0,0,1,15.19,7.506h0a11.983,11.983,0,0,1-15.19-7.506Z" transform="translate(-501.009 -225.893)" fill="#373449"/>
          </g>
        </g>
      </g>
      <g id="Grupo_430" data-name="Grupo 430" transform="translate(43.57 12.298)">
        <g id="Grupo_429" data-name="Grupo 429">
          <g id="Grupo_428" data-name="Grupo 428">
            <path id="Trazado_1027" data-name="Trazado 1027" d="M501.089,236.7h0a11.982,11.982,0,0,0,15.574-6.669h0a11.981,11.981,0,0,0-15.574,6.669Z" transform="translate(-501.089 -229.169)" fill="#373449"/>
          </g>
        </g>
      </g>
      <g id="Grupo_433" data-name="Grupo 433" transform="translate(103.123 68.2)">
        <g id="Grupo_432" data-name="Grupo 432">
          <g id="Grupo_431" data-name="Grupo 431">
            <path id="Trazado_1028" data-name="Trazado 1028" d="M490.407,261.752h0a11.981,11.981,0,0,1-15.19-7.5h0a11.98,11.98,0,0,1,15.19,7.5Z" transform="translate(-475.217 -253.612)" fill="#373449"/>
          </g>
        </g>
      </g>
      <g id="Grupo_436" data-name="Grupo 436" transform="translate(103.306 61.094)">
        <g id="Grupo_435" data-name="Grupo 435">
          <g id="Grupo_434" data-name="Grupo 434">
            <path id="Trazado_1029" data-name="Trazado 1029" d="M490.542,251.365h0a11.979,11.979,0,0,0-15.572,6.671h0a11.979,11.979,0,0,0,15.572-6.671Z" transform="translate(-474.97 -250.505)" fill="#373449"/>
          </g>
        </g>
      </g>
      <g id="Grupo_439" data-name="Grupo 439" transform="translate(44.137 59.695)">
        <g id="Grupo_438" data-name="Grupo 438">
          <g id="Grupo_437" data-name="Grupo 437">
            <path id="Trazado_1030" data-name="Trazado 1030" d="M501.009,250.529h0a11.981,11.981,0,0,1,15.19,7.5h0a11.98,11.98,0,0,1-15.19-7.5Z" transform="translate(-501.009 -249.893)" fill="#373449"/>
          </g>
        </g>
      </g>
      <g id="Grupo_442" data-name="Grupo 442" transform="translate(43.57 67.186)">
        <g id="Grupo_441" data-name="Grupo 441">
          <g id="Grupo_440" data-name="Grupo 440">
            <path id="Trazado_1031" data-name="Trazado 1031" d="M501.089,260.7h0a11.981,11.981,0,0,0,15.574-6.669h0a11.981,11.981,0,0,0-15.574,6.669Z" transform="translate(-501.089 -253.169)" fill="#373449"/>
          </g>
        </g>
      </g>
    </g>
    <g id="Grupo_387" data-name="Grupo 387" transform="translate(243.718 159.507)">
      <g id="Grupo_385" data-name="Grupo 385" transform="translate(4.122)">
        <path id="Trazado_970" data-name="Trazado 970" d="M504.665,257.193a124.509,124.509,0,0,0,15.511-.981,2.318,2.318,0,1,0-.576-4.6C449.765,260.34,413.084,205.6,412.723,205.05a2.317,2.317,0,1,0-3.879,2.534C409.192,208.119,442.044,257.193,504.665,257.193Z" transform="translate(-408.465 -204)" fill="#373449"/>
        <path id="Trazado_971" data-name="Trazado 971" d="M414.427,232.455a11.586,11.586,0,1,0,11.587-11.588,11.586,11.586,0,0,0-11.587,11.588Z" transform="translate(-337.495 -182.292)" fill="#ffc417"/>
        <path id="Trazado_972" data-name="Trazado 972" d="M430.639,228.4a11.587,11.587,0,1,0,11.588-11.588A11.587,11.587,0,0,0,430.639,228.4Z" transform="translate(-390.787 -187.508)" fill="#05f"/>
        <path id="Trazado_973" data-name="Trazado 973" d="M444.825,219.281a11.587,11.587,0,1,0,11.587-11.586,11.587,11.587,0,0,0-11.587,11.586Z" transform="translate(-437.416 -199.244)" fill="#ffc417"/>
      </g>
      <g id="Grupo_386" data-name="Grupo 386" transform="translate(0 28.345)">
        <path id="Trazado_974" data-name="Trazado 974" d="M509.259,302.168a100.528,100.528,0,0,0,14.847-1.123,2.287,2.287,0,1,0-.675-4.524c-78.947,11.769-111.7-77.7-112.022-78.6a2.286,2.286,0,0,0-4.309,1.53C407.413,220.33,437.336,302.168,509.259,302.168Z" transform="translate(-404.776 -216.394)" fill="#373449"/>
        <circle id="Elipse_127" data-name="Elipse 127" cx="11.435" cy="11.435" r="11.435" transform="translate(50.314 60.848)" fill="#05f"/>
        <circle id="Elipse_128" data-name="Elipse 128" cx="11.435" cy="11.435" r="11.435" transform="translate(86.906 72.283)" fill="#ffc417"/>
        <circle id="Elipse_129" data-name="Elipse 129" cx="11.435" cy="11.435" r="11.435" transform="translate(20.583 35.691)" fill="#ffc417"/>
        <circle id="Elipse_130" data-name="Elipse 130" cx="11.435" cy="11.435" r="11.435" transform="translate(0 8.247)" fill="#05f"/>
      </g>
    </g>
  </g>
</svg>
