<svg xmlns="http://www.w3.org/2000/svg" width="2150.692" height="867.984" viewBox="0 0 2150.692 867.984">
  <path id="Unión_1" data-name="Unión 1" d="M9.771,794.347,0,514.555a123.669,123.669,0,0,1,30.145,1.779c40.15-81.589,133.271-120.976,218.73-92.518,34.019-66.574,97.405-112.639,170.532-123.93a229.373,229.373,0,0,1,199.206,66.839,128.19,128.19,0,0,1,173.865,10.3,78.63,78.63,0,0,1,99.494-17.043c7.3-98.105,88.146-175.412,186.808-175.412,65.278-.03,125.861,34.4,159.886,90.865a78.7,78.7,0,0,1,93.237-23.983c21.043-64.184,86.775-101.639,151.813-86.5,23.724-71.013,79.53-126.241,150.14-148.583A228.764,228.764,0,0,1,1840.73,51.984a179.373,179.373,0,0,1,230.6-18.489c16.024-3.594,25.742-5.635,27.439-5.991l.34-.142-.073.721,25.227,729.482Z" transform="matrix(0.999, 0.035, -0.035, 0.999, 27.723, -0.015)" fill="#eef0f6"/>
</svg>
