<svg xmlns="http://www.w3.org/2000/svg" width="2154.448" height="391.695" viewBox="0 0 2154.448 391.695">
  <path id="Unión_5" data-name="Unión 5" d="M-15961.522-33.769V-373.69a142.138,142.138,0,0,1,43.763-5.155,143.027,143.027,0,0,1,131.728,102.357,63.559,63.559,0,0,1,45.148-16.5,63.237,63.237,0,0,1,35.89,12.787,103.632,103.632,0,0,1,91.355-48.042,103.535,103.535,0,0,1,43.056,11.16,184.991,184.991,0,0,1,155.7-85.084q4.945-.158,9.968.021a143.476,143.476,0,0,1,29.337,4.157,184.9,184.9,0,0,1,103.8,63.478,144.222,144.222,0,0,1,78.293-19.568,145.052,145.052,0,0,1,48.945,10.437,103.206,103.206,0,0,1,43.741-7.9,103.581,103.581,0,0,1,43.056,11.16,184.969,184.969,0,0,1,162.645-84.951,184.612,184.612,0,0,1,136.157,67.526,144.047,144.047,0,0,1,70.148-19.645,144.694,144.694,0,0,1,26.038-1.39,143.032,143.032,0,0,1,131.728,102.357,63.551,63.551,0,0,1,45.149-16.5A63.221,63.221,0,0,1-14450-280.2a103.636,103.636,0,0,1,91.354-48.042,103.521,103.521,0,0,1,43.056,11.16,184.984,184.984,0,0,1,162.648-84.955,184.636,184.636,0,0,1,136.153,67.526,144.241,144.241,0,0,1,78.293-19.568,144.884,144.884,0,0,1,108.114,54.631,100.18,100.18,0,0,1,23.306-6.393V-35.075h-881.956l-.732,1.274h-478.774l-.013.032Z" transform="translate(15961.522 425.464)" fill="#f7fbff"/>
</svg>
